<?xml version="1.0" encoding="UTF-8"?><svg id="Layer_1" xmlns="http://www.w3.org/2000/svg" viewBox="0 0 222.9 57.09"><defs><style>.cls-1,.cls-2{stroke-width:0px;}.cls-2{fill:#231f20;}</style></defs><path class="cls-1" d="m10.56,33.56c-.43-.46-.66-1-.6-1.64,0-.07.01-.14-.08-.18-.42-.17-.62-.53-.76-.93-.42-1.21-.83-2.43-1.25-3.64-.9-2.61-1.8-5.22-2.71-7.83-.18-.51-.37-1.02-.54-1.53-.05-.14-.1-.18-.24-.18-1.12,0-2.25,0-3.37,0-.72,0-1.18-.66-.96-1.34.12-.36.5-.66.9-.66,1.2,0,2.4-.04,3.59.01.93.04,1.58.59,1.9,1.45.41,1.1.77,2.22,1.14,3.34.05.16.12.21.29.21,5.37,0,10.74,0,16.11,0,.69,0,1.14.35,1.3.81.09.28.06.56-.07.82-.7,1.5-1.19,3.08-1.74,4.63-.13.35-.28.69-.58.94-.34.28-.74.4-1.17.4-1.5,0-3.01,0-4.51,0-2.24,0-4.48,0-6.72,0-.2,0-.21.05-.15.22.17.46.32.92.47,1.39.05.15.14.12.24.12,1.45,0,2.9,0,4.35,0,2.08,0,4.15,0,6.23,0,.67,0,1.18.78.86,1.36-.18.33-.46.5-.83.51-.15,0-.21.03-.19.19.06.61-.22,1.1-.59,1.55-.18.12-.35.27-.56.36-.89.37-1.69.23-2.37-.46-.35-.43-.57-.92-.52-1.49.01-.15-.04-.15-.15-.15-.49,0-.98,0-1.47,0-.56,0-1.13,0-1.69,0-.05,0-.15-.05-.13.08.09.64-.15,1.16-.55,1.62-.5.45-1.08.68-1.77.58-.43-.06-.79-.27-1.12-.54Zm12.44-11.02c-.55,0-1.08,0-1.62,0-.08,0-.11.02-.13.11-.23,1.16-.46,2.32-.71,3.47-.03.16.02.15.12.15.27,0,.55,0,.82,0,.14,0,.21-.04.26-.18.17-.5.35-.99.53-1.49.24-.68.5-1.36.71-2.07Zm-5.31,1.86h0c0,.57,0,1.14,0,1.72,0,.07-.03.17.11.16.26,0,.52,0,.78,0,.12,0,.17-.05.19-.16.04-.25.09-.49.14-.73.17-.9.34-1.8.52-2.7.03-.14-.02-.14-.12-.14-.48,0-.95,0-1.43,0-.15,0-.2.03-.2.19.01.56,0,1.11,0,1.67Zm-7.04-1.86c.12.07.12.16.14.23.32,1.07.65,2.13.96,3.2.06.22.13.35.4.3.22-.03.44,0,.67,0,.23,0,.25-.04.21-.26-.12-.59-.24-1.18-.35-1.77-.1-.5-.18-1.01-.28-1.51-.02-.07.01-.21-.16-.2-.51.01-1.02,0-1.59,0Zm3.5,0c.06.33.11.63.16.93.16.87.32,1.75.48,2.62.02.1.04.19.19.18.25-.01.5,0,.76,0,.12,0,.17-.03.17-.16,0-1.14,0-2.29,0-3.43,0-.1,0-.15-.13-.15-.54,0-1.08,0-1.62,0Zm-5.83.01c.21.64.42,1.28.63,1.92.18.55.37,1.11.56,1.66.04.12.31.2.45.13.13-.06.02-.17,0-.25-.3-.99-.6-1.99-.9-2.98-.16-.52-.16-.52-.74-.48Z"/><path class="cls-1" d="m25.99,7.5c-.3.02-.56.15-.81.24-.93.32-1.8.78-2.62,1.32-.19.12-.37.24-.56.37-.08.05-.13.04-.2,0-.73-.5-1.54-.83-2.39-1.06-.21-.06-.18-.13-.08-.26,1.08-1.44,2.45-2.48,4.17-3.05,1.39-.46,2.82-.53,4.27-.42.82.06,1.63.2,2.43.37.13.03.18.08.16.22-.27,2.13-.89,4.13-2.11,5.92-.68,1.01-1.49,1.9-2.48,2.62-.13.09-.17.08-.23-.06-.46-1.07-1.08-2.03-1.9-2.85-.02-.02-.04-.04-.06-.07-.38-.37-.37-.36-.01-.73.71-.73,1.41-1.47,2.11-2.21.1-.11.23-.18.31-.34Z"/><path class="cls-1" d="m18.07,19.98c-.85,0-1.71,0-2.56,0-1.93,0-3.86,0-5.79,0-.07,0-.13,0-.2,0-.08-.05-.15-.11-.18-.21-.35-.96-.5-1.95-.43-2.96.03-.5.14-.99.3-1.46,0,.22,0,.43,0,.65.03.81.41,1.39,1.15,1.72.94.42,1.94.48,2.94.34.77-.11,1.52-.33,2.24-.64.24-.11.24-.1.08-.31-.24-.31-.47-.61-.89-.7-.35-.07-.69-.06-1.02.05.01-.02.02-.06.04-.07.51-.28,1.29-.32,1.8.02.14.09.27.21.41.31.12.09.22.08.27-.08.02-.06.05-.13.06-.19.02-.43.34-.64.62-.87.27-.22.55-.4.51-.81-.01-.14.03-.22.23-.21.24.02.48.14.72.02.1-.13.26-.18.36-.32.27-.37.5-.76.67-1.18.19-.48.3-.98.15-1.5-.25-.86-.88-1.35-1.63-1.75-.52-.27-1.08-.34-1.66-.31.07-.05.16-.03.24-.04.36-.01.71.02,1.07.04.73.05,1.44.21,2.09.53.93.46,1.58,1.22,2,2.17.27.61.47,1.24.53,1.91.07.71-.06,1.39-.39,2.02-.33.63-.82,1.14-1.25,1.69-.39.49-.87.9-1.37,1.29-.36.28-.73.55-1.1.82Z"/><path class="cls-1" d="m9.21,15.35c-.16.47-.27.97-.3,1.46-.07,1.01.08,2,.43,2.96.04.1.11.15.18.21-.22,0-.45,0-.67.02-.14,0-.21-.04-.26-.17-.2-.59-.33-1.19-.36-1.81-.15-2.69.76-4.98,2.69-6.86.83-.81,1.8-1.41,2.88-1.83.73-.29,1.5-.46,2.28-.55,1-.11,2-.06,2.96.21,2.88.79,4.93,2.56,6.05,5.36.4.99.6,2.03.58,3.11-.01.82-.15,1.62-.4,2.41-.03.1-.07.15-.18.15-2.34,0-4.69,0-7.03-.01.37-.27.74-.54,1.1-.82.49-.39.98-.79,1.37-1.29.43-.55.93-1.06,1.25-1.69.33-.63.46-1.31.39-2.02-.07-.67-.27-1.3-.53-1.91-.42-.95-1.07-1.71-2-2.17-.65-.32-1.36-.48-2.09-.53-.36-.02-.71-.05-1.07-.04-.08,0-.16-.01-.24.04-.84.04-1.65.26-2.42.58-1.58.66-2.83,1.7-3.73,3.15-.38.6-.7,1.24-.85,1.94-.04.04-.05.08-.04.14h0Z"/><path class="cls-1" d="m11.21,4.75c0-.37,0-.64,0-.91,0-.11.01-.16.14-.16,1.45,0,2.85.23,4.15.92,1.05.55,1.92,1.3,2.5,2.36.17.32.29.66.39,1.02.03.12.03.17-.13.15-.77-.12-1.54-.12-2.31-.03-.1.01-.16,0-.22-.09-.43-.64-.97-1.18-1.6-1.63-.05-.04-.11-.14-.18-.07-.06.06,0,.13.04.2.26.51.46,1.05.6,1.6.04.16.03.24-.17.3-.69.18-1.35.46-1.97.82-.13.07-.18.06-.24-.07-.51-1.02-.78-2.11-.91-3.24-.05-.42-.07-.84-.09-1.16Z"/><path class="cls-1" d="m9.25,15.22c.15-.71.47-1.34.85-1.94.9-1.45,2.16-2.49,3.73-3.15.78-.32,1.58-.54,2.42-.58.58-.03,1.14.04,1.66.31.75.39,1.38.89,1.63,1.75.15.52.05,1.01-.15,1.5-.17.42-.4.81-.67,1.18-.1.14-.26.19-.36.32,0-.32-.27-.48-.46-.68-.21-.23-.19-.57.07-.75.12-.08.26-.14.39-.2.11-.06.31-.06.31-.21,0-.13-.19-.17-.31-.22-.31-.14-.56-.32-.45-.72.01-.04,0-.09-.04-.08-.21.02-.33-.17-.5-.21-.45-.11-.63-.4-.68-.83-.07-.6-.42-.6-.85-.26-.03.02-.06.05-.08.08-.03.04-.07.07-.13.08-.5.03-1.01.21-1.51-.06-.12-.07-.21-.02-.27.1-.1.19-.23.36-.35.54-.23.35-.56.49-.96.49-.23,0-.44.07-.64.17-.19.09-.23.26-.14.44.08.16.24.21.37.31.03.16-.07.26-.14.38-.23.37-.37.76-.27,1.21-.02.01-.03.02-.05.04-.07.02-.1.08-.14.14h0s-.05.03-.05.06c-.11.17-.14.35-.14.55,0,.06-.02.13.05.18h0c-.03.17.07.19.21.18.41-.05.72.13,1,.42.18.19.24.46.4.66.03.06.06.12.08.18.05.18.13.26.29.09.05-.06.13-.09.2-.14.05,0,.11,0,.13-.06h0c.34-.11.68-.13,1.02-.05.41.09.65.39.89.7.16.21.16.2-.08.31-.72.31-1.46.54-2.24.64-1,.14-2,.08-2.94-.34-.74-.33-1.13-.91-1.15-1.72,0-.22,0-.43,0-.65,0,0,0,0,0,0,.05-.03.04-.09.04-.14Z"/><path class="cls-1" d="m12.14,12.58c-.13-.1-.29-.15-.37-.31-.09-.19-.05-.35.14-.44.2-.1.41-.17.64-.17.4,0,.73-.15.96-.49.12-.18.25-.35.35-.54.06-.12.15-.17.27-.1.49.26,1,.08,1.51.06.06,0,.09-.04.13-.08.02-.03.05-.06.08-.08.43-.34.78-.34.85.26.05.43.23.72.68.83.17.04.29.23.5.21.04,0,.05.04.04.08-.11.4.14.58.45.72.12.05.3.09.31.22,0,.15-.19.15-.31.21-.13.07-.27.12-.39.2-.26.18-.28.52-.07.75.19.2.45.36.46.68-.24.12-.48,0-.72-.02-.2-.01-.24.06-.23.21.04.41-.24.59-.51.81-.28.23-.6.44-.62.87,0,.06-.04.13-.06.19-.05.16-.16.16-.27.08-.14-.1-.27-.21-.41-.31-.52-.34-1.3-.31-1.8-.02-.02.01-.03.05-.04.07,0,0,0,0,0,0-.06-.01-.11,0-.13.06-.07.05-.15.08-.2.14-.16.17-.23.09-.29-.09-.02-.06-.06-.12-.08-.18-.04-.27-.1-.54-.21-.78-.16-.33-.48-.43-.83-.43-.19,0-.38.04-.56-.05,0,0,0,0,0,0,0-.07,0-.13-.05-.18,0-.2.02-.38.14-.55.02-.02.03-.04.05-.07,0,0,0,0,0,0,.07-.02.14-.04.14-.14.02-.01.03-.02.05-.04.18-.04.1-.18.1-.27-.02-.35.03-.65.37-.86.28-.17.25-.31-.05-.46Zm2.37,2.6c.86,0,1.61-.52,1.93-1.32.34-.87-.14-1.86-1.01-2.07-.95-.22-1.94.27-2.34,1.16-.44,1,.08,2.27,1.42,2.24Z"/><path class="cls-1" d="m9.25,15.22c0,.05.01.1-.04.14,0-.05,0-.1.04-.14Z"/><path class="cls-1" d="m11.4,15.12c.18.09.38.05.56.05.35,0,.67.1.83.43.11.24.18.51.21.78-.16-.2-.21-.47-.4-.66-.28-.29-.58-.47-1-.42-.14.02-.24,0-.21-.18Z"/><path class="cls-1" d="m12.14,12.58c.3.15.33.29.05.46-.34.21-.39.5-.37.86,0,.09.08.23-.1.27-.1-.44.04-.84.27-1.21.07-.12.17-.23.14-.38Z"/><path class="cls-1" d="m11.68,14.2c0,.09-.07.11-.14.14.04-.05.07-.11.14-.14Z"/><path class="cls-1" d="m11.35,14.95c.05.05.05.11.05.18-.07-.05-.05-.12-.05-.18Z"/><path class="cls-1" d="m13.58,16.52c.03-.06.08-.07.13-.06-.03.06-.08.05-.13.06Z"/><path class="cls-1" d="m11.54,14.34s-.03.04-.05.07c0-.03.02-.05.05-.07Z"/><path class="cls-2" d="m55.73,16.35c0-.08,0-.25-.02-.49-.03-.92-.26-1.72-.72-2.42-.45-.7-1.06-1.25-1.82-1.65s-1.62-.61-2.57-.61c-1.15,0-2.2.26-3.16.79-.96.53-1.79,1.28-2.5,2.25-.7.97-1.25,2.13-1.64,3.45-.39,1.33-.58,2.78-.58,4.35,0,1.32.22,2.45.65,3.41.43.96,1.04,1.69,1.83,2.2.79.51,1.73.76,2.83.76.99,0,1.91-.19,2.74-.56.83-.37,1.55-.92,2.16-1.63.61-.71,1.06-1.55,1.37-2.52h6.91c-.36,2.1-1.17,3.95-2.43,5.53s-2.85,2.82-4.77,3.71c-1.92.88-4.06,1.33-6.42,1.33s-4.59-.49-6.41-1.46c-1.83-.97-3.24-2.35-4.24-4.12-1-1.77-1.5-3.85-1.5-6.24,0-2.55.37-4.88,1.12-6.97.75-2.09,1.82-3.89,3.21-5.39,1.39-1.5,3.06-2.66,5-3.48,1.94-.82,4.11-1.23,6.51-1.23,2.19,0,4.14.43,5.85,1.3,1.71.86,3.06,2.05,4.04,3.57.99,1.52,1.49,3.27,1.52,5.25,0,.22,0,.42-.02.6-.01.18-.03.34-.06.48h-6.91c.01-.06.02-.14.02-.22Z"/><path class="cls-2" d="m65.69,33.34c-.95-.5-1.7-1.17-2.24-2.03s-.82-1.84-.82-2.95c0-2.17.84-3.88,2.53-5.14s3.99-1.93,6.92-2l4.97-.15.25-1.24c.04-.17.06-.3.07-.41,0-.1,0-.2,0-.29,0-.61-.26-1.09-.78-1.46s-1.24-.55-2.14-.55c-.58,0-1.1.08-1.55.24-.45.16-.83.39-1.12.7-.3.3-.52.67-.66,1.11h-6.1c.26-1.42.83-2.65,1.73-3.69.9-1.04,2.04-1.84,3.43-2.42,1.39-.57,2.97-.86,4.74-.86s3.34.27,4.68.8,2.39,1.28,3.14,2.23c.75.95,1.13,2.05,1.13,3.32,0,.28-.02.59-.05.91-.03.32-.07.59-.13.81l-2.86,13.51h-6.46l.54-2.5h-.14c-.37.55-.86,1.04-1.45,1.47-.59.43-1.27.75-2.02.99-.75.23-1.58.35-2.47.35-1.16,0-2.22-.25-3.16-.75Zm7.96-4.27c.57-.26,1.05-.62,1.45-1.07.4-.46.66-.98.77-1.56l.35-1.57-3.83.12c-1.01.03-1.81.26-2.42.7-.61.44-.91,1.01-.91,1.72,0,.61.25,1.1.76,1.48.51.38,1.17.57,1.98.57.66,0,1.27-.13,1.84-.39Z"/><path class="cls-2" d="m88.68,12.7h6.46l-.6,3h.14c.53-.98,1.25-1.78,2.16-2.39.91-.61,1.95-.92,3.12-.92.58,0,1.1.05,1.55.15.45.1.86.23,1.24.4l-1.28,5.82c-.43-.19-.89-.36-1.38-.49-.5-.14-1.05-.2-1.65-.2-.92,0-1.72.17-2.42.5-.7.34-1.28.85-1.75,1.54-.47.69-.82,1.55-1.05,2.58l-2.38,11.09h-6.68l4.53-21.07Z"/><path class="cls-2" d="m106.17,32.89c-1.23-.77-1.85-1.94-1.85-3.48,0-.26.02-.58.05-.97s.09-.8.18-1.24l1.9-9.06h-3.13l1.08-4.95h3.13l1.06-5.07h6.66l-1.08,5.07h4.22l-1.06,4.95h-4.2l-1.76,8.3c-.04.15-.07.34-.1.55-.03.21-.04.39-.04.53,0,.61.2,1.04.61,1.31.41.26,1.04.4,1.91.4.25,0,.46,0,.63,0,.17,0,.32-.02.45-.04.12-.02.23-.04.32-.07l-1.04,4.68c-.3.08-.71.14-1.25.18-.54.04-1.07.07-1.62.07-2.14,0-3.83-.39-5.06-1.16Z"/><path class="cls-2" d="m128.06,33.56c-.89-.35-1.64-.84-2.26-1.47-.62-.63-1.06-1.37-1.32-2.21h-.14l-.83,3.89h-6.44l5.94-27.92h6.66l-2.13,9.93h.15c.63-1.07,1.51-1.9,2.64-2.5,1.13-.59,2.37-.89,3.73-.89,1.47,0,2.74.33,3.82.99,1.08.66,1.91,1.6,2.5,2.83.59,1.23.88,2.71.88,4.44,0,1.87-.25,3.62-.76,5.23-.51,1.62-1.22,3.04-2.14,4.28-.92,1.23-2,2.19-3.26,2.88-1.26.69-2.64,1.04-4.15,1.04-1.03,0-1.99-.17-2.88-.52Zm3.27-5.33c.62-.37,1.16-.88,1.62-1.54.46-.66.82-1.42,1.07-2.27.26-.86.39-1.78.39-2.76,0-1.26-.31-2.27-.93-3.02-.62-.75-1.46-1.12-2.54-1.12-.71,0-1.38.19-2,.57-.63.38-1.17.91-1.63,1.58-.46.67-.83,1.44-1.1,2.29-.27.86-.41,1.78-.41,2.76,0,1.21.32,2.19.97,2.94.65.75,1.5,1.12,2.57,1.12.71,0,1.37-.18,1.99-.55Z"/><path class="cls-2" d="m147.83,33.11c-1.45-.77-2.57-1.87-3.35-3.3-.78-1.43-1.17-3.13-1.17-5.11,0-1.78.28-3.43.83-4.95.55-1.52,1.34-2.85,2.37-3.98,1.03-1.13,2.25-2.01,3.67-2.63,1.42-.63,3-.94,4.74-.94,1.84,0,3.47.37,4.87,1.12s2.49,1.8,3.28,3.15c.79,1.35,1.18,2.95,1.18,4.78,0,.54-.02,1.12-.07,1.74s-.13,1.19-.26,1.7h-14.53c-.01.1-.03.21-.04.32-.01.11-.02.22-.02.32,0,.79.16,1.49.47,2.12.32.63.77,1.11,1.36,1.46.59.35,1.3.52,2.11.52.97,0,1.79-.23,2.48-.68s1.15-1.04,1.39-1.78h6.23c-.36,1.44-1.02,2.71-1.98,3.8-.96,1.09-2.16,1.94-3.59,2.55-1.43.61-3.04.92-4.82.92-1.99,0-3.71-.38-5.16-1.15Zm10.27-12.24c.03-.06.04-.15.04-.27v-.33c0-.62-.14-1.18-.42-1.67-.28-.5-.67-.89-1.19-1.19-.52-.3-1.15-.45-1.9-.45s-1.44.16-2.06.49c-.63.33-1.16.79-1.61,1.37-.45.59-.76,1.27-.94,2.04h8.07Z"/><path class="cls-2" d="m169.3,12.7h6.46l-.6,3h.13c.53-.98,1.25-1.78,2.16-2.39s1.95-.92,3.12-.92c.58,0,1.1.05,1.55.15.45.1.86.23,1.24.4l-1.28,5.82c-.43-.19-.89-.36-1.38-.49-.5-.14-1.05-.2-1.65-.2-.92,0-1.72.17-2.42.5-.7.34-1.28.85-1.75,1.54-.47.69-.82,1.55-1.05,2.58l-2.38,11.09h-6.68l4.53-21.07Z"/><path class="cls-2" d="m185.71,12.7h6.46l-.6,3h.13c.53-.98,1.25-1.78,2.16-2.39s1.95-.92,3.12-.92c.58,0,1.1.05,1.55.15.45.1.86.23,1.24.4l-1.28,5.82c-.43-.19-.89-.36-1.38-.49-.5-.14-1.05-.2-1.65-.2-.92,0-1.72.17-2.42.5-.7.34-1.28.85-1.75,1.54-.47.69-.82,1.55-1.05,2.58l-2.38,11.09h-6.68l4.53-21.07Z"/><path class="cls-2" d="m198.07,41.47c-.47-.02-.92-.04-1.34-.05l1.06-5.17c.32.01.65.03.98.04.33.01.67.02,1.02.02,1.01,0,1.8-.17,2.39-.51.59-.34.96-.91,1.11-1.69.01-.08.03-.15.05-.23.02-.08.04-.15.05-.23.01-.08.03-.14.04-.19l-2.42-20.74h6.81l.54,15.83h.13l7.3-15.83h7.12l-11.36,21.32c-.97,1.82-2.02,3.27-3.16,4.36-1.14,1.09-2.43,1.88-3.88,2.37-1.44.49-3.11.74-4.99.74-.49,0-.97,0-1.44-.03Z"/></svg>